# xmcd CD database file
#
# Track frame offsets:
#	150
#	10712
#	25372
#	44137
#	66050
#	85425
#	98832
#	124595
#	147312
#	167270
#	187792
#	203062
#	224167
#	238802
#	255425
#	273660
#	297150
#	316722
#
# Disc length: 4518 seconds
#
# Revision: 0
# Processed by: cddbd v1.5.2PL0 Copyright (c) Steve Scherf et al.
# Submitted via: CDex 1.70beta2
#
DISCID=0411a412
DTITLE=Various Artist - Summer Day's Zephyr
DYEAR=1900
DGENRE=New Age
TTITLE0=The Cradle
TTITLE1=The Lark in the Clear Air
TTITLE2=In The Mirror
TTITLE3=Stars in Heaven
TTITLE4=Michelle
TTITLE5=Picture This
TTITLE6=A Different Shore
TTITLE7=The Piano
TTITLE8=Forbidden Love
TTITLE9=Pavane
TTITLE10=Danny Boy
TTITLE11=Estrellia
TTITLE12=I Can't Be Your Man
TTITLE13=Bring Them Home
TTITLE14=Aphrodite
TTITLE15=Every Day is "A Day"
TTITLE16=Beloved
TTITLE17=Little One Mine
EXTD=
EXTT0=
EXTT1=
EXTT2=
EXTT3=
EXTT4=
EXTT5=
EXTT6=
EXTT7=
EXTT8=
EXTT9=
EXTT10=
EXTT11=
EXTT12=
EXTT13=
EXTT14=
EXTT15=
EXTT16=
EXTT17=
PLAYORDER=
